<svg width="20" height="20" viewBox="0 0 20 20" fill="none" xmlns="http://www.w3.org/2000/svg">
<path d="M15.8333 8.74999V7.33333H12.1666V12.6667H13.5833V11H15.2499V9.58333H13.5833V8.74999H15.8333V8.74999ZM9.74992 7.33333H11.1666V12.6667H9.74992V7.33333ZM6.74992 8.66666C7.08325 8.66666 7.49992 8.83333 7.74992 9.08333L8.74992 8.24999C8.24992 7.66666 7.49992 7.33333 6.74992 7.33333C5.24992 7.33333 4.08325 8.49999 4.08325 9.99999C4.08325 11.5 5.24992 12.6667 6.74992 12.6667C7.58325 12.6667 8.24992 12.3333 8.74992 11.75V9.66666H6.41658V10.6667H7.41658V11.1667C7.24992 11.25 6.99992 11.3333 6.74992 11.3333C5.99992 11.3333 5.41659 10.75 5.41659 9.99999C5.41659 9.33333 5.99992 8.66666 6.74992 8.66666V8.66666Z" fill="#1D9BF0"/>
<path d="M17.0833 1.68333H2.91663C1.88329 1.68333 1.04163 2.5225 1.04163 3.55583V16.4783C1.04163 17.51 1.88329 18.35 2.91663 18.35H17.0833C18.1166 18.35 18.9583 17.51 18.9583 16.4783V3.55583C18.9583 2.5225 18.1166 1.68333 17.0833 1.68333V1.68333ZM17.7083 16.4783C17.7083 16.82 17.4283 17.1 17.0833 17.1H2.91663C2.57163 17.1 2.29163 16.82 2.29163 16.4783V3.55583C2.29163 3.2125 2.57163 2.93333 2.91663 2.93333H17.0833C17.4283 2.93333 17.7083 3.2125 17.7083 3.55583V16.4783Z" fill="#1D9BF0"/>
</svg>
