<svg width="20" height="20" viewBox="0 0 20 20" fill="none" xmlns="http://www.w3.org/2000/svg">
<path d="M16.4583 1.66667H3.54163C2.50829 1.66667 1.66663 2.50834 1.66663 3.54167V16.4583C1.66663 17.4917 2.50829 18.3333 3.54163 18.3333H16.4583C17.4916 18.3333 18.3333 17.4917 18.3333 16.4583V3.54167C18.3333 2.50834 17.4916 1.66667 16.4583 1.66667ZM3.54163 2.91667H16.4583C16.8025 2.91667 17.0833 3.19751 17.0833 3.54167V11.605L13.8683 8.39001C13.7516 8.27334 13.5933 8.20667 13.4266 8.20667H13.4241C13.2575 8.20667 13.0966 8.27334 12.9808 8.39334L9.38329 12.0467L7.87246 10.5417C7.75579 10.425 7.59746 10.3583 7.43079 10.3583C7.26996 10.3333 7.10163 10.425 6.98496 10.5475L2.91663 14.7017V3.54167C2.91663 3.19751 3.19746 2.91667 3.54163 2.91667ZM2.92163 16.4833L7.43663 11.8717L12.6716 17.0833H3.54163C3.20663 17.0833 2.93579 16.815 2.92163 16.4833ZM16.4583 17.0833H14.4416L10.2691 12.9275L13.4291 9.71917L17.0833 13.3725V16.4583C17.0833 16.8025 16.8025 17.0833 16.4583 17.0833Z" fill="#1D9BF0"/>
<path d="M7.38998 8.20918C8.09967 8.20918 8.67498 7.63386 8.67498 6.92418C8.67498 6.21449 8.09967 5.63918 7.38998 5.63918C6.68029 5.63918 6.10498 6.21449 6.10498 6.92418C6.10498 7.63386 6.68029 8.20918 7.38998 8.20918Z" fill="#1D9BF0"/>
</svg>
