<svg width="20" height="20" viewBox="0 0 20 20" fill="none" xmlns="http://www.w3.org/2000/svg">
<path d="M16.8516 7.63334H15.74C15.7525 7.55834 15.7633 7.48167 15.7633 7.40251V5.47501C15.7633 4.65834 15.0991 3.99417 14.2816 3.99417H2.91663V2.79834C2.91663 2.45334 2.63663 2.17334 2.29163 2.17334C1.94663 2.17334 1.66663 2.45334 1.66663 2.79834V17.3583C1.66663 17.7042 1.94663 17.9833 2.29163 17.9833C2.63663 17.9833 2.91663 17.7042 2.91663 17.3583V16.1633H11.7133C12.53 16.1633 13.195 15.4992 13.195 14.6825V12.755C13.195 12.6758 13.1833 12.5992 13.1716 12.5233H16.8525C17.6691 12.5233 18.3341 11.8583 18.3341 11.0417V9.11667C18.3341 8.29751 17.67 7.63334 16.8525 7.63334H16.8516ZM14.2833 5.24417C14.41 5.24417 14.5141 5.34751 14.5141 5.47501V7.40001C14.5141 7.52834 14.41 7.63334 14.2825 7.63334H2.91663V5.24167H14.2833V5.24417ZM11.9441 12.7558V14.6825C11.9441 14.81 11.84 14.9133 11.7125 14.9133H2.91663V12.5233H11.7133C11.8408 12.5233 11.9441 12.6283 11.9441 12.7567V12.7558ZM17.0833 11.0417C17.0833 11.1692 16.9791 11.2725 16.8516 11.2725H2.91663V8.88334H16.8516C16.9791 8.88334 17.0833 8.98667 17.0833 9.11417V11.0417Z" fill="#1D9BF0"/>
</svg>
