<svg width="20" height="20" viewBox="0 0 20 20" fill="none" xmlns="http://www.w3.org/2000/svg">
<g clip-path="url(#clip0_113_266)">
<path d="M-31.5833 15C-31.6666 14.9167 -31.6666 14.9167 -31.6666 14.8333C-31.5833 14.8333 -31.5833 14.9167 -31.5833 15ZM15 1.83334H13.9167V1.58334C13.9167 1.25001 13.6667 0.916672 13.25 0.916672C12.9167 0.916672 12.5834 1.16667 12.5834 1.58334V1.83334H6.41671V1.58334C6.41671 1.25001 6.16671 0.916672 5.75004 0.916672C5.41671 0.916672 5.08337 1.16667 5.08337 1.58334V1.83334H4.00004C2.83337 1.83334 1.91671 2.75 1.91671 3.91667V14.8333C1.91671 16 2.83337 16.9167 4.00004 16.9167H6.41671C6.75004 16.9167 7.08337 16.6667 7.08337 16.25C7.08337 15.9167 6.83337 15.5833 6.41671 15.5833H4.00004C3.50004 15.5833 3.16671 15.1667 3.16671 14.75V6.58334C3.16671 6.33334 3.50004 6 4.00004 6H15C15.5 6 15.8334 6.33334 15.8334 6.58334V8.08334C15.8334 8.41667 16.0834 8.75 16.5 8.75C16.8334 8.75 17.1667 8.5 17.1667 8.08334V3.91667C17.0834 2.75 16.1667 1.83334 15 1.83334V1.83334ZM15.8334 4.91667C15.5834 4.83334 15.25 4.75 15 4.75H4.00004C3.66671 4.75 3.41671 4.83334 3.16671 4.91667V3.91667C3.16671 3.41667 3.58337 3.08334 4.00004 3.08334H5.08337V3.5C5.08337 3.83334 5.33337 4.16667 5.75004 4.16667C6.08337 4.16667 6.41671 3.91667 6.41671 3.5V3.08334H12.6667V3.5C12.6667 3.83334 12.9167 4.16667 13.3334 4.16667C13.6667 4.16667 14 3.91667 14 3.5V3.08334H15C15.5 3.08334 15.8334 3.5 15.8334 3.91667V4.91667Z" fill="#1D9BF0"/>
<path d="M12.9167 8.66667C10.0833 8.66667 7.75 11 7.75 13.8333C7.75 16.6667 10.0833 19 12.9167 19C15.75 19 18.0833 16.6667 18.0833 13.8333C18.0833 11 15.75 8.66667 12.9167 8.66667V8.66667ZM12.9167 17.8333C10.75 17.8333 9 16.0833 9 13.9167C9 11.75 10.75 10 12.9167 10C15.0833 10 16.8333 11.75 16.8333 13.9167C16.8333 16 15.0833 17.8333 12.9167 17.8333Z" fill="#1D9BF0"/>
<path d="M15.75 15.5833C15.6667 15.75 15.4167 15.9167 15.25 15.9167C15.1667 15.9167 15 15.9167 14.9167 15.8333L12.3334 14.1667V11.6667C12.3334 11.3333 12.5834 11 13 11C13.3334 11 13.6667 11.25 13.6667 11.6667V13.5L15.6667 14.75C15.8334 14.9167 15.9167 15.25 15.75 15.5833V15.5833Z" fill="#1D9BF0"/>
</g>
<defs>
<clipPath id="clip0_113_266">
<rect width="20" height="20" fill="white"/>
</clipPath>
</defs>
</svg>
